<svg width="358" height="60" viewBox="0 0 358 60" fill="none" xmlns="http://www.w3.org/2000/svg">
<rect width="358" height="60" rx="30" fill="#124054"/>
<path d="M64.7727 41.3707C67.6747 41.3707 69.554 40.1051 70.5128 38.277H70.6662V41H75.831V27.7557C75.831 23.0767 71.8679 21.108 67.4957 21.108C62.7912 21.108 59.6974 23.358 58.9432 26.9375L63.9801 27.3466C64.3509 26.0426 65.5142 25.0838 67.4702 25.0838C69.3239 25.0838 70.3849 26.017 70.3849 27.6278V27.7045C70.3849 28.9702 69.0426 29.1364 65.6293 29.4688C61.7429 29.8267 58.2528 31.1307 58.2528 35.5156C58.2528 39.402 61.027 41.3707 64.7727 41.3707ZM66.3324 37.6122C64.6577 37.6122 63.456 36.8324 63.456 35.3366C63.456 33.8026 64.7216 33.0483 66.6392 32.7798C67.8281 32.6136 69.7713 32.3324 70.4233 31.8977V33.9815C70.4233 36.0398 68.723 37.6122 66.3324 37.6122ZM84.4221 29.6477C84.4349 27.1165 85.9434 25.6335 88.1423 25.6335C90.3284 25.6335 91.6451 27.0653 91.6324 29.4688V41H97.0784V28.4972C97.0784 23.9205 94.3937 21.108 90.3028 21.108C87.388 21.108 85.2787 22.5398 84.3966 24.8281H84.1664V21.3636H78.9761V41H84.4221V29.6477ZM107.526 41.3196C110.697 41.3196 112.346 39.4915 113.1 37.8551H113.33V41H118.7V14.8182H113.266V24.6619H113.1C112.372 23.0639 110.799 21.108 107.514 21.108C103.205 21.108 99.5619 24.4574 99.5619 31.2074C99.5619 37.7784 103.052 41.3196 107.526 41.3196ZM109.252 36.9858C106.58 36.9858 105.123 34.608 105.123 31.1818C105.123 27.7812 106.555 25.4418 109.252 25.4418C111.899 25.4418 113.382 27.679 113.382 31.1818C113.382 34.6847 111.873 36.9858 109.252 36.9858ZM122.097 41H127.543V29.8906C127.543 27.4744 129.308 25.8125 131.711 25.8125C132.465 25.8125 133.501 25.9403 134.012 26.1065V21.2741C133.526 21.1591 132.849 21.0824 132.299 21.0824C130.1 21.0824 128.298 22.3608 127.582 24.7898H127.377V21.3636H122.097V41ZM143.706 41.3835C149.663 41.3835 153.371 37.3054 153.371 31.2585C153.371 25.1733 149.663 21.108 143.706 21.108C137.749 21.108 134.041 25.1733 134.041 31.2585C134.041 37.3054 137.749 41.3835 143.706 41.3835ZM143.731 37.1648C140.983 37.1648 139.577 34.6463 139.577 31.2202C139.577 27.794 140.983 25.2628 143.731 25.2628C146.429 25.2628 147.835 27.794 147.835 31.2202C147.835 34.6463 146.429 37.1648 143.731 37.1648ZM155.832 41H161.278V21.3636H155.832V41ZM158.568 18.8324C160.191 18.8324 161.521 17.5923 161.521 16.071C161.521 14.5625 160.191 13.3224 158.568 13.3224C156.957 13.3224 155.627 14.5625 155.627 16.071C155.627 17.5923 156.957 18.8324 158.568 18.8324ZM171.796 41.3196C174.967 41.3196 176.616 39.4915 177.37 37.8551H177.6V41H182.97V14.8182H177.536V24.6619H177.37C176.641 23.0639 175.069 21.108 171.783 21.108C167.475 21.108 163.832 24.4574 163.832 31.2074C163.832 37.7784 167.322 41.3196 171.796 41.3196ZM173.522 36.9858C170.85 36.9858 169.393 34.608 169.393 31.1818C169.393 27.7812 170.825 25.4418 173.522 25.4418C176.168 25.4418 177.651 27.679 177.651 31.1818C177.651 34.6847 176.143 36.9858 173.522 36.9858ZM198.602 28.0881H186.661V32.4091H198.602V28.0881ZM211.034 41.3835C216.263 41.3835 219.549 38.3153 219.804 33.8026H214.665C214.345 35.8991 212.965 37.0753 211.098 37.0753C208.554 37.0753 206.905 34.9403 206.905 31.1818C206.905 27.4744 208.567 25.3523 211.098 25.3523C213.093 25.3523 214.371 26.669 214.665 28.625H219.804C219.574 24.0866 216.135 21.108 211.009 21.108C205.051 21.108 201.37 25.2372 201.37 31.2585C201.37 37.2287 204.987 41.3835 211.034 41.3835ZM227.811 41.3707C230.713 41.3707 232.592 40.1051 233.551 38.277H233.704V41H238.869V27.7557C238.869 23.0767 234.906 21.108 230.534 21.108C225.829 21.108 222.735 23.358 221.981 26.9375L227.018 27.3466C227.389 26.0426 228.552 25.0838 230.508 25.0838C232.362 25.0838 233.423 26.017 233.423 27.6278V27.7045C233.423 28.9702 232.08 29.1364 228.667 29.4688C224.781 29.8267 221.291 31.1307 221.291 35.5156C221.291 39.402 224.065 41.3707 227.811 41.3707ZM229.37 37.6122C227.695 37.6122 226.494 36.8324 226.494 35.3366C226.494 33.8026 227.759 33.0483 229.677 32.7798C230.866 32.6136 232.809 32.3324 233.461 31.8977V33.9815C233.461 36.0398 231.761 37.6122 229.37 37.6122ZM242.014 48.3636H247.46V37.8551H247.626C248.38 39.4915 250.03 41.3196 253.2 41.3196C257.674 41.3196 261.164 37.7784 261.164 31.2074C261.164 24.4574 257.521 21.108 253.213 21.108C249.927 21.108 248.355 23.0639 247.626 24.6619H247.383V21.3636H242.014V48.3636ZM247.345 31.1818C247.345 27.679 248.828 25.4418 251.474 25.4418C254.172 25.4418 255.603 27.7812 255.603 31.1818C255.603 34.608 254.146 36.9858 251.474 36.9858C248.853 36.9858 247.345 34.6847 247.345 31.1818ZM274.16 21.3636H270.465V16.6591H265.019V21.3636H262.334V25.4545H265.019V35.6818C264.994 39.5298 267.614 41.4347 271.565 41.2685C272.971 41.2173 273.968 40.9361 274.518 40.7571L273.661 36.7045C273.393 36.7557 272.817 36.8835 272.306 36.8835C271.219 36.8835 270.465 36.4744 270.465 34.9659V25.4545H274.16V21.3636ZM289.22 32.6392C289.232 35.2727 287.43 36.6534 285.474 36.6534C283.416 36.6534 282.086 35.2088 282.073 32.8949V21.3636H276.627V33.8665C276.64 38.456 279.325 41.2557 283.275 41.2557C286.228 41.2557 288.35 39.7344 289.232 37.4332H289.437V41H294.666V21.3636H289.22V32.6392ZM297.942 41H303.388V29.8906C303.388 27.4744 305.152 25.8125 307.556 25.8125C308.31 25.8125 309.345 25.9403 309.857 26.1065V21.2741C309.371 21.1591 308.693 21.0824 308.144 21.0824C305.945 21.0824 304.142 22.3608 303.426 24.7898H303.222V21.3636H297.942V41ZM319.627 41.3835C324.485 41.3835 327.758 39.0185 328.525 35.375L323.488 35.0426C322.938 36.5384 321.532 37.3182 319.717 37.3182C316.994 37.3182 315.268 35.5156 315.268 32.5881V32.5753H328.64V31.0795C328.64 24.4062 324.6 21.108 319.41 21.108C313.631 21.108 309.886 25.2116 309.886 31.2713C309.886 37.4972 313.58 41.3835 319.627 41.3835ZM315.268 29.2003C315.383 26.9631 317.083 25.1733 319.499 25.1733C321.864 25.1733 323.501 26.8608 323.514 29.2003H315.268Z" fill="#EBE6D4"/>
<circle cx="30" cy="30" r="9" fill="#E22D2D"/>
<circle cx="30" cy="30" r="13.5" stroke="#E22D2D" stroke-width="3"/>
</svg>
